<?xml version="1.0" encoding="UTF-8" standalone="no"?>
<!DOCTYPE svg PUBLIC "-//W3C//DTD SVG 1.1//EN" "http://www.w3.org/Graphics/SVG/1.1/DTD/svg11.dtd">
<svg width="100%" height="100%" viewBox="0 0 80 80" version="1.1" xmlns="http://www.w3.org/2000/svg" xmlns:xlink="http://www.w3.org/1999/xlink" xml:space="preserve" xmlns:serif="http://www.serif.com/" style="fill-rule:evenodd;clip-rule:evenodd;stroke-linejoin:round;stroke-miterlimit:1.41421;">
    <g id="Layer5">
        <g transform="matrix(1.21893,0,0,1.22723,1.89349,1.02128)">
            <rect x="-1.553" y="-0.832" width="65.631" height="65.187"/>
        </g>
        <g transform="matrix(1.19403,0,0,1.19403,3.38308,33.8308)">
            <path d="M1,9.29C1,8.36 1.1,7.58 1.1,6.71C1.1,6.2 0.9,5.71 0.02,5.71L0.02,5.3C0.9,5.3 1.1,4.8 1.1,4.3C1.1,3.41 1,2.63 1,1.7C1,0.44 1.44,0.1 2.37,0.1L2.8,0.1L2.8,0.46L2.41,0.46C1.64,0.46 1.41,0.88 1.41,1.75C1.41,2.62 1.49,3.26 1.49,4.16C1.49,4.9 1.35,5.32 0.85,5.47L0.85,5.52C1.35,5.67 1.49,6.11 1.49,6.83C1.49,7.73 1.41,8.42 1.41,9.24C1.41,10.06 1.61,10.53 2.41,10.53L2.8,10.53L2.8,10.89L2.37,10.89C1.44,10.9 1,10.56 1,9.29Z" style="fill:white;fill-rule:nonzero;"/>
        </g>
        <g transform="matrix(1.19403,0,0,1.19403,3.38308,33.8308)">
            <path d="M4.11,0.78L6.69,0.78C8.51,0.78 9.87,1.41 9.87,3.32C9.87,5.23 8.51,6 6.74,6L5.56,6L5.56,9L4.11,9L4.11,0.78ZM6.63,4.78C7.85,4.78 8.44,4.29 8.44,3.29C8.44,2.29 7.8,1.95 6.58,1.95L5.58,1.95L5.58,4.81L6.63,4.78Z" style="fill:white;fill-rule:nonzero;"/>
        </g>
        <g transform="matrix(1.19403,0,0,1.19403,3.38308,33.8308)">
            <path d="M11.29,2.83L12.48,2.83L12.58,3.92L12.63,3.92C12.94,3.217 13.614,2.74 14.38,2.68C14.62,2.669 14.86,2.714 15.08,2.81L14.83,4.07C14.624,4.002 14.407,3.968 14.19,3.97C13.7,3.97 13.11,4.31 12.73,5.24L12.73,9L11.29,9L11.29,2.83Z" style="fill:white;fill-rule:nonzero;"/>
        </g>
        <g transform="matrix(1.19403,0,0,1.19403,3.38308,33.8308)">
            <path d="M15.57,5.92C15.56,5.821 15.555,5.722 15.555,5.623C15.555,4.005 16.887,2.673 18.505,2.673C20.123,2.673 21.455,4.005 21.455,5.623C21.455,5.722 21.45,5.821 21.44,5.92C21.45,6.019 21.455,6.118 21.455,6.217C21.455,7.835 20.123,9.167 18.505,9.167C16.887,9.167 15.555,7.835 15.555,6.217C15.555,6.118 15.56,6.019 15.57,5.92ZM19.95,5.92C19.95,4.68 19.4,3.86 18.49,3.86C17.58,3.86 17.05,4.68 17.05,5.92C17.05,7.16 17.59,7.92 18.49,7.92C19.39,7.92 20,7.15 20,5.92L19.95,5.92Z" style="fill:white;fill-rule:nonzero;"/>
        </g>
        <g transform="matrix(1.19403,0,0,1.19403,3.38308,33.8308)">
            <path d="M22.21,10.54L22.6,10.54C23.37,10.54 23.6,10.12 23.6,9.25C23.6,8.38 23.52,7.74 23.52,6.84C23.52,6.12 23.67,5.68 24.16,5.53L24.16,5.48C23.67,5.33 23.52,4.92 23.52,4.17C23.52,3.27 23.6,2.58 23.6,1.76C23.6,0.94 23.4,0.47 22.6,0.47L22.21,0.47L22.21,0.1L22.64,0.1C23.57,0.1 24,0.44 24,1.71C24,2.64 23.9,3.42 23.9,4.31C23.9,4.8 24.1,5.31 24.98,5.31L24.98,5.71C24.1,5.71 23.9,6.21 23.9,6.71C23.9,7.58 24,8.36 24,9.29C24,10.56 23.54,10.9 22.61,10.9L22.18,10.9L22.21,10.54Z" style="fill:white;fill-rule:nonzero;"/>
        </g>
        <g transform="matrix(1.19403,0,0,1.19403,3.38308,33.8308)">
            <path d="M27.27,4.87C27.27,2.25 28.71,0.6 30.8,0.6C31.631,0.602 32.421,0.968 32.96,1.6L32.62,2C32.174,1.462 31.509,1.15 30.81,1.15C28.99,1.15 27.87,2.59 27.87,4.89C27.87,7.19 29,8.65 30.77,8.65C31.585,8.652 32.358,8.284 32.87,7.65L33.2,8C32.606,8.751 31.697,9.187 30.74,9.18C28.69,9.18 27.27,7.51 27.27,4.87Z" style="fill:white;fill-rule:nonzero;"/>
        </g>
        <g transform="matrix(1.19403,0,0,1.19403,3.38308,33.8308)">
            <path d="M34.32,6C34.32,4 35.58,2.82 37.02,2.82C38.46,2.82 39.73,4 39.73,6C39.73,8 38.48,9.18 37,9.18C35.52,9.18 34.32,8 34.32,6ZM39.15,6C39.15,4.4 38.23,3.31 37.01,3.31C35.79,3.31 34.9,4.43 34.9,6C34.9,7.57 35.8,8.69 37,8.69C38.2,8.69 39.15,7.61 39.15,6Z" style="fill:white;fill-rule:nonzero;"/>
        </g>
        <g transform="matrix(1.19403,0,0,1.19403,3.38308,33.8308)">
            <path d="M41,6C41,4.05 42.24,2.82 43.67,2.82C44.346,2.837 44.994,3.1 45.49,3.56L45.49,2.45L45.49,0L46.04,0L46.04,9L45.56,9L45.51,8.22C44.997,8.788 44.275,9.124 43.51,9.15C42,9.18 41,8.06 41,6ZM45.51,7.7L45.51,4.12C45.048,3.64 44.416,3.36 43.75,3.34C42.54,3.34 41.63,4.51 41.63,6.03C41.63,7.55 42.33,8.69 43.63,8.69C44.365,8.629 45.044,8.271 45.51,7.7Z" style="fill:white;fill-rule:nonzero;"/>
        </g>
        <g transform="matrix(1.19403,0,0,1.19403,3.38308,33.8308)">
            <path d="M47.87,6C47.87,4 49.15,2.82 50.49,2.82C51.83,2.82 52.8,3.82 52.8,5.61C52.812,5.76 52.812,5.91 52.8,6.06L48.43,6.06C48.42,6.15 48.414,6.241 48.414,6.331C48.414,7.603 49.439,8.66 50.71,8.7C51.294,8.702 51.864,8.512 52.33,8.16L52.56,8.59C52.001,8.974 51.338,9.18 50.66,9.18C49.112,9.158 47.851,7.878 47.851,6.33C47.851,6.22 47.857,6.11 47.87,6ZM52.28,5.61C52.28,4.07 51.59,3.3 50.51,3.3C49.322,3.395 48.404,4.418 48.44,5.61L52.28,5.61Z" style="fill:white;fill-rule:nonzero;"/>
        </g>
        <g transform="matrix(1.19403,0,0,1.19403,3.38308,33.8308)">
            <path d="M54.44,3L54.92,3L54.92,4.12C55.211,3.414 55.87,2.925 56.63,2.85C56.838,2.842 57.044,2.887 57.23,2.98L57.1,3.48C56.926,3.407 56.738,3.373 56.55,3.38C56.01,3.38 55.37,3.8 54.91,4.92L54.91,9L54.36,9L54.44,3Z" style="fill:white;fill-rule:nonzero;"/>
        </g>
        <g transform="matrix(1.19403,0,0,1.19403,3.38308,33.8308)">
            <path d="M57.66,8.35L58,7.94C58.518,8.432 59.205,8.708 59.92,8.71C60.86,8.71 61.35,8.16 61.35,7.52C61.35,6.88 60.57,6.44 59.88,6.19C59,5.85 58,5.49 58,4.46C58,3.58 58.69,2.85 59.95,2.85C60.578,2.861 61.184,3.083 61.67,3.48L61.37,3.87C60.967,3.529 60.458,3.338 59.93,3.33C59,3.33 58.57,3.87 58.57,4.42C58.57,4.97 59.27,5.42 59.99,5.64C60.93,5.99 61.99,6.31 61.99,7.49C61.943,8.443 61.146,9.201 60.192,9.201C60.125,9.201 60.057,9.198 59.99,9.19C59.137,9.204 58.308,8.905 57.66,8.35Z" style="fill:white;fill-rule:nonzero;"/>
        </g>
    </g>
</svg>
